Coordinates
version=1
nRows=49
nColumns=12
inDegrees=yes

Units are S.I. units (second, meters, Newtons, ...)
Angles are in degrees

endheader
time	SC_y	SC_z	SC_x	AC_y	AC_z	AC_x	GH_y	GH_z	GH_yy	EL_x	PS_y
       0.0              -37.47          18.05          83.73          65.76         -17.37         -2.873          101.9          4.069         -71.57          135.1          84.05
   0.04996              -37.47          18.05          83.72          65.76         -17.37         -2.876          101.9           4.07         -71.53          135.1          84.05
   0.09991              -37.48          18.05          83.71          65.76         -17.37         -2.878          101.9          4.072          -71.5          135.1          84.05
    0.1499              -37.48          18.05           83.7          65.76         -17.37          -2.88          101.9          4.073         -71.46          135.1          84.05
    0.1998              -37.48          18.05          83.69          65.76         -17.37         -2.883          101.9          4.075         -71.42          135.0          84.04
    0.2498              -37.49          18.05          83.67          65.76         -17.36         -2.885          101.9          4.077         -71.37          135.0          84.04
    0.2997              -37.49          18.05          83.66          65.76         -17.36         -2.888          101.9          4.079         -71.33          135.0          84.04
    0.3497               -37.5          18.05          83.64          65.76         -17.36         -2.891          101.9          4.081         -71.28          135.0          84.03
    0.3996               -37.5          18.05          83.63          65.76         -17.36         -2.895          101.9          4.083         -71.22          135.0          84.03
    0.4496              -37.51          18.05          83.61          65.77         -17.36         -2.898          101.9          4.086         -71.17          135.0          84.03
    0.4996              -37.51          18.05          83.59          65.77         -17.36         -2.902          101.9          4.089          -71.1          135.0          84.02
    0.5495              -37.52          18.05          83.57          65.77         -17.36         -2.906          101.9          4.091         -71.04          135.0          84.02
    0.5995              -37.53          18.05          83.55          65.77         -17.36          -2.91          101.8          4.095         -70.97          135.0          84.01
    0.6494              -37.53          18.04          83.53          65.77         -17.35         -2.915          101.8          4.098         -70.89          135.0          84.01
    0.6994              -37.54          18.04           83.5          65.77         -17.35          -2.92          101.8          4.102         -70.81          135.0           84.0
    0.7493              -37.55          18.04          83.47          65.77         -17.35         -2.926          101.8          4.105         -70.71          134.9           84.0
    0.7993              -37.56          18.04          83.44          65.77         -17.35         -2.932          101.8           4.11         -70.62          134.9          83.99
    0.8492              -37.57          18.04          83.41          65.78         -17.35         -2.939          101.8          4.114         -70.51          134.9          83.98
    0.8992              -37.58          18.04          83.38          65.78         -17.34         -2.946          101.8          4.119         -70.39          134.9          83.97
    0.9491              -37.59          18.04          83.34          65.78         -17.34         -2.954          101.7          4.125         -70.26          134.9          83.96
    0.9991               -37.6          18.03          83.29          65.78         -17.34         -2.962          101.7          4.131         -70.12          134.9          83.95
     1.049              -37.62          18.03          83.25          65.79         -17.33         -2.972          101.7          4.138         -69.97          134.8          83.94
     1.099              -37.64          18.03          83.19          65.79         -17.33         -2.982          101.7          4.145          -69.8          134.8          83.93
     1.149              -37.65          18.03          83.14          65.79         -17.33         -2.994          101.6          4.153         -69.61          134.8          83.92
     1.199              -37.67          18.02          83.07           65.8         -17.32         -3.007          101.6          4.162         -69.39          134.8           83.9
     1.249              -37.69          18.02           83.0           65.8         -17.32         -3.021          101.6          4.173         -69.16          134.7          83.89
     1.299              -37.72          18.02          82.92           65.8         -17.31         -3.038          101.5          4.184          -68.9          134.7          83.87
     1.349              -37.75          18.01          82.83          65.81          -17.3         -3.056          101.5          4.197          -68.6          134.6          83.85
     1.399              -37.78          18.01          82.73          65.81          -17.3         -3.076          101.4          4.211         -68.26          134.6          83.83
     1.449              -37.81           18.0          82.61          65.82         -17.29           -3.1          101.4          4.228         -67.88          134.5           83.8
     1.499              -37.85           18.0          82.48          65.83         -17.28         -3.127          101.3          4.246         -67.45          134.5          83.77
     1.549               -37.9          17.99          82.33          65.84         -17.27         -3.157          101.2          4.268         -66.95          134.4          83.74
     1.599              -37.95          17.98          82.16          65.85         -17.25         -3.193          101.2          4.293         -66.37          134.3           83.7
     1.649              -38.01          17.97          81.95          65.86         -17.24         -3.234          101.1          4.322          -65.7          134.2          83.65
     1.698              -38.09          17.96          81.72          65.87         -17.22         -3.282          100.9          4.355         -64.92          134.1          83.59
     1.748              -38.17          17.95          81.43          65.89          -17.2         -3.338          100.8          4.395          -64.0          134.0          83.53
     1.798              -38.27          17.93           81.1          65.91         -17.18         -3.406          100.6          4.443          -62.9          133.8          83.45
     1.848               -38.4          17.91           80.7          65.93         -17.15         -3.486          100.4          4.499         -61.59          133.7          83.36
     1.898              -38.54          17.89          80.22          65.96         -17.11         -3.584          100.2          4.568          -60.0          133.4          83.25
     1.948              -38.72          17.86          79.63          65.99         -17.07         -3.703          99.91          4.652         -58.06          133.2          83.12
     1.998              -38.95          17.83           78.9          66.03         -17.02         -3.851          99.55          4.755         -55.66          132.8          82.95
     2.048              -39.22          17.79          77.99          66.08         -16.95         -4.034           99.1          4.884         -52.67          132.4          82.75
     2.098              -39.57          17.74          76.85          66.14         -16.87         -4.266          98.53          5.047          -48.9          131.9          82.49
     2.148              -40.02          17.67           75.4          66.23         -16.77          -4.56          97.82          5.254         -44.12          131.2          82.15
     2.198              -40.59          17.58          73.54          66.33         -16.63         -4.936           96.9          5.518         -37.99          130.3          81.73
     2.248              -41.32          17.47          71.15          66.46         -16.46         -5.419          95.72          5.857         -30.12          129.2          81.18
     2.298              -42.25          17.33           68.1          66.63         -16.24         -6.036          94.21          6.291         -20.08          127.8          80.49
     2.348              -43.42          17.16          64.26          66.85         -15.96         -6.812          92.32          6.836         -7.449          126.0          79.61
     2.398              -44.85          16.94          59.59          67.11         -15.63         -7.758          90.01            7.5          7.942          123.8          78.55
